<svg width="104" height="104" fill="none" xmlns="http://www.w3.org/2000/svg"><rect width="104" height="104" rx="6" fill="#EB5757"/><path d="M51.238 47.992H38.894a3.21 3.21 0 00-3.207 3.207v8.516a3.21 3.21 0 003.207 3.207h12.344a3.21 3.21 0 003.207-3.207v-8.516a3.21 3.21 0 00-3.207-3.207zm1.293 11.723c0 .713-.58 1.293-1.293 1.293H38.894c-.713 0-1.293-.58-1.293-1.293v-8.516c0-.713.58-1.293 1.293-1.293h12.344c.713 0 1.293.58 1.293 1.293v8.516z" fill="#fff"/><path d="M46.813 54.628l-2.541-1.468a.957.957 0 00-1.436.83v2.934a.957.957 0 001.436.829l2.541-1.468a.957.957 0 000-1.657z" fill="#fff"/><path d="M76.485 36.329l-11.952-6.22a.957.957 0 00-.883 0l-11.952 6.22a.957.957 0 000 1.698l4.602 2.395v2.02H37.092a6.42 6.42 0 00-6.412 6.411v17.705h-1.723a.957.957 0 00-.957.957 6.324 6.324 0 006.316 6.317h31.2a6.324 6.324 0 006.316-6.316.957.957 0 00-.957-.958h-1.723V48.853c0-.134-.005-.268-.014-.402l2.162-.918a.957.957 0 00.583-.88v-6.231l3.203-1.667v5.857a.957.957 0 001.914 0v-7.434a.957.957 0 00-.515-.85zm-9.247 30.23H54.223a.957.957 0 000 1.913h15.59a4.41 4.41 0 01-4.297 3.446h-31.2a4.41 4.41 0 01-4.297-3.446h15.59a.957.957 0 000-1.913H32.594V48.852a4.503 4.503 0 014.498-4.498H56.3v2.297c0 .384.23.731.583.881l6.834 2.903a.958.958 0 00.749 0l2.772-1.178v17.3zm2.73-20.54l-5.876 2.497-5.878-2.497v-4.6l5.436 2.828a.957.957 0 00.883 0l5.436-2.829v4.601zm-5.876-3.7l-9.879-5.141 9.879-5.142 9.878 5.142-9.878 5.141z" fill="#fff"/><path d="M63.413 36.5a.964.964 0 00-.28.678c0 .251.102.498.28.676.178.178.425.28.677.28a.964.964 0 00.676-.28.964.964 0 00.28-.676.964.964 0 00-.28-.677.962.962 0 00-.676-.28.965.965 0 00-.677.28zm.159 24.508H58.34a.957.957 0 000 1.914h5.232a.957.957 0 000-1.914zm0-4.594H58.34a.957.957 0 000 1.914h5.232a.957.957 0 000-1.914zM49.91 66.559a.964.964 0 00-.676.28.963.963 0 00-.28.677c0 .251.102.498.28.676.178.178.425.28.677.28a.964.964 0 00.676-.28.963.963 0 00.281-.676.964.964 0 00-.28-.677.964.964 0 00-.677-.28z" fill="#fff"/></svg>