<svg width="19" height="15" fill="none" xmlns="http://www.w3.org/2000/svg"><path d="M16.842 3.776a7.707 7.707 0 001.802-1.872 6.82 6.82 0 01-2.08.555A3.555 3.555 0 0018.16.449a7.685 7.685 0 01-2.287.901A3.639 3.639 0 0013.204.207a3.638 3.638 0 00-3.639 3.638c0 .277.035.554.104.831A10.556 10.556 0 012.15.865 3.54 3.54 0 001.665 2.7a3.58 3.58 0 001.629 3.015c-.59-.035-1.179-.173-1.664-.45V5.3a3.643 3.643 0 002.91 3.57 4.062 4.062 0 01-.935.138c-.242 0-.45-.035-.693-.07a3.62 3.62 0 003.396 2.53 7.315 7.315 0 01-4.504 1.56c-.312 0-.59-.035-.867-.07 1.594 1.04 3.5 1.629 5.579 1.629 6.688 0 10.326-5.51 10.326-10.326v-.485z" fill="url(#paint0_linear_0_296)"/><defs><linearGradient id="paint0_linear_0_296" x1="2.626" y1="1.805" x2="10.487" y2="17.465" gradientUnits="userSpaceOnUse"><stop stop-color="#6F58E3"/><stop offset="1" stop-color="#BB6BD9"/></linearGradient></defs></svg>