<svg width="17" height="17" fill="none" xmlns="http://www.w3.org/2000/svg"><path d="M4.406 16.429V6.069H1.184v10.36h3.222zM2.778 4.682c1.04 0 1.871-.866 1.871-1.905C4.649 1.772 3.817.94 2.778.94A1.849 1.849 0 00.94 2.777c0 1.04.832 1.905 1.837 1.905zM16.43 16.43h.035v-5.683c0-2.772-.624-4.92-3.88-4.92-1.56 0-2.6.866-3.05 1.663H9.5V6.07H6.416v10.36H9.64v-5.128c0-1.352.242-2.634 1.906-2.634 1.663 0 1.697 1.525 1.697 2.738v5.024h3.188z" fill="url(#paint0_linear_0_302)"/><defs><linearGradient id="paint0_linear_0_302" x1="2.422" y1="2.662" x2="11.857" y2="17.96" gradientUnits="userSpaceOnUse"><stop stop-color="#6F58E3"/><stop offset="1" stop-color="#BB6BD9"/></linearGradient></defs></svg>