<svg width="244" height="55" fill="none" xmlns="http://www.w3.org/2000/svg"><path d="M91.522 43c-.544 0-.975-.147-1.292-.442-.295-.317-.442-.737-.442-1.258V20.73c0-.521.147-.93.442-1.224.317-.317.748-.476 1.292-.476h6.664c3.876 0 6.879 1.043 9.01 3.128 2.131 2.085 3.196 5.032 3.196 8.84s-1.065 6.766-3.196 8.874c-2.131 2.085-5.134 3.128-9.01 3.128h-6.664zm6.46-2.924c5.893 0 8.84-3.026 8.84-9.078 0-6.03-2.947-9.044-8.84-9.044H93.29v18.122h4.692zm25.469-14.008c1.088-.068 1.632.397 1.632 1.394 0 .499-.124.873-.374 1.122-.249.25-.68.397-1.292.442l-1.02.102c-1.428.136-2.493.635-3.196 1.496-.68.861-1.02 1.904-1.02 3.128v7.786c0 .544-.158.952-.476 1.224-.317.272-.725.408-1.224.408-.498 0-.918-.136-1.258-.408-.317-.272-.476-.68-.476-1.224V27.7c0-.521.159-.918.476-1.19.34-.295.76-.442 1.258-.442.454 0 .828.147 1.122.442.318.272.476.657.476 1.156v1.632c.454-.997 1.111-1.757 1.972-2.278.862-.521 1.836-.827 2.924-.918l.476-.034zm10.623 17.17c-1.632 0-3.071-.351-4.318-1.054-1.224-.703-2.176-1.7-2.856-2.992-.657-1.315-.986-2.833-.986-4.556 0-1.745.329-3.264.986-4.556.68-1.315 1.632-2.323 2.856-3.026 1.247-.703 2.686-1.054 4.318-1.054 1.632 0 3.06.351 4.284 1.054 1.247.703 2.199 1.711 2.856 3.026.68 1.292 1.02 2.81 1.02 4.556 0 1.723-.34 3.241-1.02 4.556a6.997 6.997 0 01-2.856 2.992c-1.224.703-2.652 1.054-4.284 1.054zm0-2.72c1.519 0 2.675-.499 3.468-1.496.816-.997 1.224-2.46 1.224-4.386 0-1.904-.408-3.355-1.224-4.352-.816-1.02-1.972-1.53-3.468-1.53s-2.652.51-3.468 1.53c-.816.997-1.224 2.448-1.224 4.352 0 1.927.397 3.389 1.19 4.386.816.997 1.984 1.496 3.502 1.496zm25.626-.102c.34.34.51.737.51 1.19 0 .43-.159.805-.476 1.122a1.48 1.48 0 01-1.088.442c-.431 0-.828-.193-1.19-.578l-5.202-5.848-5.168 5.848c-.363.385-.76.578-1.19.578-.431 0-.805-.159-1.122-.476a1.593 1.593 0 01-.442-1.122c0-.43.158-.816.476-1.156l5.372-5.916-5.1-5.678c-.34-.385-.51-.77-.51-1.156 0-.43.158-.793.476-1.088.317-.317.68-.476 1.088-.476.43 0 .827.193 1.19.578l4.93 5.576 4.93-5.576c.362-.385.77-.578 1.224-.578.408 0 .77.159 1.088.476.317.295.476.657.476 1.088 0 .43-.17.816-.51 1.156l-5.1 5.678 5.338 5.916zm12.219 2.856c-1.723 0-3.366-.238-4.93-.714-1.541-.476-2.777-1.133-3.706-1.972a1.74 1.74 0 01-.646-1.394c0-.408.113-.748.34-1.02.227-.295.499-.442.816-.442.317 0 .703.147 1.156.442 2.017 1.496 4.318 2.244 6.902 2.244 1.813 0 3.207-.34 4.182-1.02.975-.68 1.462-1.655 1.462-2.924 0-.997-.453-1.745-1.36-2.244-.907-.499-2.357-.975-4.352-1.428-1.904-.408-3.468-.873-4.692-1.394-1.224-.521-2.187-1.224-2.89-2.108-.68-.907-1.02-2.051-1.02-3.434s.374-2.607 1.122-3.672c.771-1.088 1.836-1.927 3.196-2.516 1.36-.612 2.913-.918 4.658-.918 1.609 0 3.094.227 4.454.68 1.36.453 2.516 1.122 3.468 2.006.453.385.68.85.68 1.394 0 .385-.125.725-.374 1.02-.227.295-.499.442-.816.442-.295 0-.669-.147-1.122-.442-1.043-.793-2.029-1.36-2.958-1.7-.907-.363-2.006-.544-3.298-.544-1.745 0-3.105.363-4.08 1.088-.975.703-1.462 1.689-1.462 2.958 0 1.088.431 1.915 1.292 2.482.861.544 2.244 1.043 4.148 1.496 1.995.453 3.604.93 4.828 1.428 1.247.476 2.233 1.145 2.958 2.006.748.839 1.122 1.927 1.122 3.264 0 1.36-.385 2.573-1.156 3.638-.748 1.043-1.813 1.859-3.196 2.448-1.36.567-2.935.85-4.726.85zm20.946-2.72c.499.045.85.181 1.054.408.227.204.34.499.34.884 0 .453-.181.805-.544 1.054-.34.227-.85.317-1.53.272l-.918-.068c-1.836-.136-3.207-.691-4.114-1.666-.906-.997-1.36-2.46-1.36-4.386v-7.99h-2.04c-.997 0-1.496-.442-1.496-1.326 0-.408.125-.725.374-.952.272-.25.646-.374 1.122-.374h2.04v-3.502c0-.521.148-.93.442-1.224.318-.295.737-.442 1.258-.442.522 0 .941.147 1.258.442.318.295.476.703.476 1.224v3.502h3.366c.476 0 .839.125 1.088.374.272.227.408.544.408.952 0 .43-.136.76-.408.986-.249.227-.612.34-1.088.34h-3.366v8.228c0 1.065.216 1.847.646 2.346.454.499 1.134.782 2.04.85l.952.068zm11.069 2.686c-1.632 0-3.072-.351-4.318-1.054-1.224-.703-2.176-1.7-2.856-2.992-.658-1.315-.986-2.833-.986-4.556 0-1.745.328-3.264.986-4.556.68-1.315 1.632-2.323 2.856-3.026 1.246-.703 2.686-1.054 4.318-1.054 1.632 0 3.06.351 4.284 1.054 1.246.703 2.198 1.711 2.856 3.026.68 1.292 1.02 2.81 1.02 4.556 0 1.723-.34 3.241-1.02 4.556a7.009 7.009 0 01-2.856 2.992c-1.224.703-2.652 1.054-4.284 1.054zm0-2.72c1.518 0 2.674-.499 3.468-1.496.816-.997 1.224-2.46 1.224-4.386 0-1.904-.408-3.355-1.224-4.352-.816-1.02-1.972-1.53-3.468-1.53s-2.652.51-3.468 1.53c-.816.997-1.224 2.448-1.224 4.352 0 1.927.396 3.389 1.19 4.386.816.997 1.983 1.496 3.502 1.496zm20.687-14.45c1.088-.068 1.632.397 1.632 1.394 0 .499-.125.873-.374 1.122-.249.25-.68.397-1.292.442l-1.02.102c-1.428.136-2.493.635-3.196 1.496-.68.861-1.02 1.904-1.02 3.128v7.786c0 .544-.159.952-.476 1.224-.317.272-.725.408-1.224.408s-.918-.136-1.258-.408c-.317-.272-.476-.68-.476-1.224V27.7c0-.521.159-.918.476-1.19.34-.295.759-.442 1.258-.442.453 0 .827.147 1.122.442.317.272.476.657.476 1.156v1.632c.453-.997 1.111-1.757 1.972-2.278.861-.521 1.836-.827 2.924-.918l.476-.034zm16.403 12.75c.318 0 .578.125.782.374.204.25.306.567.306.952 0 .657-.408 1.213-1.224 1.666-.793.453-1.666.805-2.618 1.054-.929.25-1.824.374-2.686.374-2.629 0-4.703-.76-6.222-2.278-1.518-1.541-2.278-3.638-2.278-6.29 0-1.7.329-3.207.986-4.522.68-1.315 1.621-2.335 2.822-3.06 1.224-.725 2.607-1.088 4.148-1.088 2.222 0 3.978.714 5.27 2.142 1.292 1.428 1.938 3.355 1.938 5.78 0 .907-.408 1.36-1.224 1.36h-10.506c.227 3.513 1.916 5.27 5.066 5.27.839 0 1.564-.113 2.176-.34a15.825 15.825 0 001.938-.884c.068-.045.25-.136.544-.272.318-.159.578-.238.782-.238zm-5.916-10.302c-1.314 0-2.368.42-3.162 1.258-.793.839-1.269 2.017-1.428 3.536h8.772c-.068-1.541-.464-2.72-1.19-3.536-.702-.839-1.7-1.258-2.992-1.258zM14.034 7.66c-.127.19-.19.379-.19.568 0 .82 1.199 1.45 2.65 1.45.694 0 1.325-.125 1.83-.378 3.028 1.766 5.993 3.595 9.021 5.361.947-.883 2.65-1.703 4.858-2.144.253-.505.758-1.01 1.388-1.388L19.333 6.147c-.126-.442-.505-.757-1.01-1.01a759.594 759.594 0 017.508-3.532c-.378-.063-.694-.063-1.072-.126-2.398 1.072-4.795 2.082-7.13 3.154v.378c0 .063-.063.063-.063.126-.126.127-.252.19-.378.253s-.252.063-.316.063h-.315.063c.063 0 .126 0 .252-.063.064 0 .19-.063.316-.126h.189l.126-.127.064-.063V4.57c-.127-.442-.505-.757-.947-.757-.568 0-1.01.505-1.01 1.072-.693.19-1.261.505-1.576.946-.316.063-.695.126-1.01.19C9.87 7.28 6.904 8.668 3.94 9.993l1.577.694 8.518-3.028zm18.611 3.532l-1.01 1.01c-4.1-1.893-8.264-3.785-12.365-5.677a832.977 832.977 0 0013.375 4.667zM21.667 3.245a87.658 87.658 0 013.596-1.64s-1.577.82-3.533 1.703c-1.955.946-3.596 1.64-3.596 1.64s1.578-.82 3.533-1.703zm-5.362.568h.189c.063 0 .19 0 .252.063.127.063.19.063.253.19.063.062.126.188.189.252.063.063.063.189.063.252v.189c0-.063-.063-.063-.063-.126-.063-.063-.063-.126-.126-.19a3376.367 3376.367 0 01-.379-.378c-.063-.063-.126-.063-.189-.126s-.126-.063-.19-.126c-.062 0 0 0 0 0s-.062 0 0 0zm-5.49 4.541c.695-.252 1.326-.504 1.957-.694.315-.126.567-.189.883-.315.126-.063.252-.063.379-.126.063 0 .126-.063.189-.063h.126c.19-.253.378-.442.505-.631.126-.19.315-.315.378-.505.19-.252.316-.378.316-.378s-.127.126-.316.442c-.126.126-.252.315-.378.504-.063.126-.127.19-.253.315-.063.064-.063.127-.126.19l-.063.063-.063.063s0 .063-.063.063c-.252.063-.505.19-.757.315-.253.126-.568.19-.82.316-.568.252-1.262.441-1.956.693-2.965 1.073-5.426 1.83-5.426 1.83s2.524-1.01 5.489-2.082z" fill="#0A0951"/><path d="M68.29 28.79a.478.478 0 01-.252.126c-.063.063-.19.063-.252.126-.19.063-.316.126-.442.126s-.252.063-.378.063h-.758.19c.126 0 .315-.063.568-.126.126-.063.252-.063.378-.126l.379-.19a2.26 2.26 0 00.63-.44c.253-.316.38-.695.38-1.01 0-.82-.632-1.514-1.641-1.892 3.154-2.019 6.246-4.037 9.4-6.055-.441 0-.946.063-1.388.063-2.776 1.703-5.615 3.406-8.39 5.109-.19-.568-.632-.946-1.2-.946-.567 0-1.009.378-1.198.946v.252c0 .063 0 .126.063.252.063.063.063.127.126.19l.19.189c.063.063.189.126.252.126s.063.063.126.063.063 0 .126.063c.063 0 .19.063.252.063h.569s-.063 0-.063.063c-.063.063-.19.063-.315.126h-.505c-.063 0-.126 0-.126-.063-.063 0-.126 0-.126-.063-.127-.063-.19-.063-.316-.126a.493.493 0 01-.252-.252.482.482 0 01-.126-.316c0-.126-.063-.189-.063-.252s0-.19.063-.252v-.063L49.93 17.12c.063-.19.063-.378.063-.568 0-1.577-2.081-2.901-5.236-3.721-.757-1.577-3.28-2.775-6.246-2.775-2.965 0-5.489 1.135-6.246 2.775-3.154.757-5.236 2.144-5.236 3.721 0 .19.063.379.126.568l-14.258 7.317v.063c0 .063 0 .126.063.252 0 .063 0 .19-.063.252 0 .126-.064.19-.127.316-.063.063-.126.189-.252.252s-.19.126-.316.126c-.063 0-.126.063-.126.063-.063 0-.126 0-.126.063h-.505a.482.482 0 01-.315-.126c-.063 0-.063 0-.063-.063h.569c.063 0 .126 0 .252-.063.063 0 .063 0 .126-.063.063 0 .063-.063.126-.063.063-.063.19-.063.253-.126l.19-.19c.062-.063.125-.126.125-.189s.063-.126.063-.252v-.252c-.189-.568-.63-.947-1.198-.947s-1.01.379-1.2.947c-2.775-1.703-5.614-3.406-8.39-5.11-.442 0-.946-.063-1.388-.063 3.154 2.019 6.246 4.037 9.4 6.056-.946.378-1.64 1.072-1.64 1.892 0 .378.126.757.379 1.01.189.188.378.378.63.44l.379.19c.126.063.252.063.379.126.252.063.441.126.567.126h.127-.694c-.127 0-.253 0-.379-.063a1.17 1.17 0 01-.442-.126.478.478 0 01-.252-.126c-.126.126-.19.063-.252.063-.063-.063-.127-.063-.19-.126-.126.189-.252.441-.252.694 0 1.009 1.451 1.766 3.218 1.766 1.766 0 3.217-.82 3.217-1.767 0-.189-.063-.441-.19-.63l10.222 5.172 2.082-.63c-3.534-2.145-7.003-4.29-10.537-6.434a7940.96 7940.96 0 0113.502-2.965c-.127.063-.505 1.135-.568 1.325-.19.441-.379.946-.505 1.387-.315.883-.568 1.83-.757 2.776a37.83 37.83 0 00-.757 5.36c-.252.253-.442.632-.442 1.01 0 .82.631 1.45 1.451 1.45.82 0 1.451-.63 1.451-1.45 0-.378-.126-.694-.378-.946l-.063-.063a1.288 1.288 0 00-.379-.252c-.126-.064-.252-.064-.378-.127-.126 0-.19-.063-.253-.063h-.126.063c.063 0 .127-.063.253-.063s.252 0 .378.063a.48.48 0 01.253.126v-.063c.063-2.712.694-5.361 1.45-8.01.064-.252.505-2.208 1.01-2.082.505.127.947.253 1.514.379v1.577c0 .694.568 1.261 1.262 1.261h8.517c.694 0 1.325-.567 1.325-1.261v-1.703c.316-.063.631-.126.883-.253.442.253.758 1.83.82 2.019.758 2.586 1.389 5.235 1.452 8.01v.063c.063-.063.189-.063.252-.126.126-.063.316-.063.378-.063.127 0 .19 0 .253.063h-.063c-.063 0-.126 0-.252.063-.127 0-.253.063-.38.126a1.321 1.321 0 00-.378.253s-.063 0-.063.063c-.189.252-.378.568-.378.946 0 .82.63 1.45 1.45 1.45.821 0 1.452-.63 1.452-1.45 0-.379-.19-.757-.442-1.01a37.833 37.833 0 00-.757-5.36c-.19-.947-.442-1.83-.757-2.776a12.284 12.284 0 00-.505-1.387c-.063-.19-.378-1.262-.567-1.325 0 0 8.138 1.766 13.5 2.964-3.532 2.145-7.002 4.29-10.535 6.434l2.082.63 10.788-5.171c-.126.189-.19.378-.19.63 0 1.01 1.452 1.767 3.218 1.767 1.767 0 3.218-.82 3.218-1.767 0-.252-.063-.441-.252-.693 0 .063-.063.063-.127.126zm2.65-6.812c2.272-1.451 4.227-2.523 4.227-2.523s-1.83 1.261-4.1 2.712a82.329 82.329 0 01-4.228 2.523s1.83-1.325 4.101-2.712zm-5.489 1.703c-.063 0-.063.063-.126.063-.126.063-.252.189-.378.315s-.253.252-.316.379c-.063.063-.063.126-.063.126v-.19c0-.063.063-.189.063-.252.063-.063.126-.189.19-.252.063-.063.189-.126.252-.19.063-.062.19-.062.252-.062 0 0 .063 0 .126.063 0 0 0-.063 0 0 .064 0 .064 0 0 0 0 0 .064 0 0 0zm-53.878 0s.063 0 0 0h.189c.063 0 .19 0 .252.063.063.063.19.126.253.189s.126.19.189.252c.126.063.126.19.126.253v.189c0-.063-.063-.063-.063-.126-.063-.127-.19-.253-.316-.379s-.252-.252-.378-.315l-.252-.126zM6.02 22.167c-2.272-1.45-4.101-2.712-4.101-2.712s1.893 1.072 4.227 2.523a156.03 156.03 0 014.1 2.712s-1.955-1.072-4.226-2.523zm11.482 5.55c.757.442 1.577.947 2.398 1.451a194.331 194.331 0 016.624 4.226s-3.028-1.766-6.75-4.037c-.82-.504-1.641-1.009-2.398-1.45a9.51 9.51 0 00-1.073-.631c-.315-.19-.63-.378-.883-.568-.378-.126-.757-.252-1.072-.378-.316-.126-.568-.19-.82-.315a5.137 5.137 0 00-.695-.253s.253.063.694.19c.253.063.505.189.82.252.316.126.695.189 1.073.378l.947.568c.378.126.757.315 1.135.568zm9.085-8.262l-13.06 5.172 13.06-6.56v1.388zm11.987-9.02c3.407 0 5.552 2.018 5.93 2.397a12.506 12.506 0 00-5.867-1.45c-2.839 0-4.984.945-5.93 1.45.315-.379 2.46-2.397 5.867-2.397zm-5.93 3.848c.063.063.189.126.315.189.316.126.694.378 1.262.568.252.126.568.189.883.315.316.126.694.19 1.01.252l1.135.19c.379.063.82.063 1.262.063.883 0 1.703-.127 2.398-.253.757-.126 1.387-.378 1.892-.567.568-.19.947-.442 1.262-.568.126-.063.252-.126.315-.19.064-.062.127-.063.127-.063l-.063.064c-.064.063-.19.126-.316.252-.252.19-.63.505-1.136.757-.504.315-1.135.568-1.955.82-.379.126-.82.189-1.2.252-.44.063-.882.126-1.324.126-.442 0-.883-.063-1.325-.126-.441-.063-.82-.19-1.199-.252-.378-.126-.757-.252-1.072-.379-.316-.126-.631-.315-.883-.441a17.346 17.346 0 01-1.136-.757c-.126-.063-.19-.19-.252-.252-.063 0-.063 0-.063-.063l.063.063zm-4.921 3.153c.126.063.315.19.567.379.253.126.568.315.947.504.378.19.82.379 1.262.631.252.126.504.19.757.316.063 0 .126.063.189.063s.126.063.19.063a.906.906 0 00.44.126c.064 0 .127.063.253.063.063 0 .126.063.253.063.126.063.315.063.441.126.063 0 .19.063.253.063s.189.063.252.063.19.063.252.063h.253c.063 0 .189.063.252.063h.252c.063 0 .19.064.253.064s.189 0 .252.063h.253c.063 0 .189 0 .252.063.063 0 .19 0 .252.063h.253c.757.063 1.514.126 2.334.126.82 0 1.577-.063 2.334-.126.757-.063 1.451-.19 2.145-.379h.253c.063 0 .189-.063.252-.063s.19-.063.252-.063c.063 0 .19-.063.253-.063s.126-.063.252-.063c.063 0 .063 0 .126-.063.063 0 .063 0 .126-.063.064 0 .127-.063.253-.063.063 0 .063 0 .126-.063.063 0 .063 0 .126-.063.568-.19 1.136-.379 1.577-.631.947-.442 1.704-.82 2.209-1.136a2.2 2.2 0 00.567-.378c.127-.063.19-.126.19-.126l-.063.063-.127.126c-.126.126-.315.252-.568.442-.504.378-1.198.82-2.144 1.324-.505.252-1.01.505-1.578.757-.063 0-.063 0-.126.063-.063 0-.063 0-.126.063-.063 0-.126.063-.252.063-.064 0-.064 0-.127.063-.063 0-.063 0-.126.064-.063 0-.126.063-.252.063-.063 0-.19.063-.253.063s-.189.063-.252.063-.19.063-.252.063c-.063 0-.063 0-.127.063-.063 0-.063 0-.126.063-.694.19-1.45.315-2.208.441-.757.127-1.577.19-2.397.19-.82 0-1.64-.063-2.398-.19h-.252c-.126 0-.19 0-.252-.063-.063 0-.19-.063-.253-.063h-.252c-.063 0-.19-.063-.252-.063-.064 0-.19-.063-.253-.063s-.063 0-.126-.063h-.126c-.063 0-.19-.063-.252-.063-.064 0-.064 0-.127-.063-.063 0-.063 0-.126-.063-.063 0-.19-.063-.252-.063-.063 0-.19-.063-.253-.063s-.189-.063-.252-.063a3.08 3.08 0 01-.442-.19c-.063 0-.126-.063-.252-.063-.063 0-.126-.063-.252-.063-.127-.063-.316-.126-.442-.189-.063 0-.126-.063-.19-.063-.062 0-.125-.063-.188-.063l-.758-.379c-.504-.252-.883-.504-1.261-.693-.379-.253-.631-.442-.884-.631-.189-.19-.378-.316-.504-.442-.063 0-.127-.063-.127-.063l-.063-.063s.064.063.19.126zm11.23 9.588c-2.587 0-4.669-.127-4.669-.127s2.082-.126 4.669-.126c2.586 0 4.668.127 4.668.127s-2.145.126-4.668.126zm0-.757c-2.587 0-4.669-.126-4.669-.126s2.082-.126 4.669-.126c2.586 0 4.668.126 4.668.126s-2.145.126-4.668.126zm0-.883c-2.587 0-4.669-.126-4.669-.126s2.082-.127 4.669-.127c2.586 0 4.668.127 4.668.127s-2.145.126-4.668.126zm10.473-4.352c-.063 0-.063.063-.127.126a2.2 2.2 0 01-.567.378c-.505.316-1.2.82-2.145 1.325-.505.252-1.01.504-1.578.694-.063 0-.063 0-.126.063-.063 0-.063 0-.126.063-.063 0-.126.063-.252.063-.063 0-.063 0-.127.063-.063 0-.063 0-.126.063-.063 0-.126.063-.252.063-.063 0-.19.063-.252.063-.064 0-.19.063-.253.063s-.19.063-.252.063c-.063 0-.063 0-.126.063-.064 0-.064 0-.127.063-.694.19-1.388.316-2.208.442a14.78 14.78 0 01-2.397.19 14.8 14.8 0 01-2.398-.19h-.252c-.063 0-.19 0-.252-.063-.063 0-.19-.063-.253-.063h-.252c-.063 0-.19-.063-.252-.063-.063 0-.19-.063-.253-.063h-.252c-.063 0-.19-.063-.252-.063-.063 0-.063 0-.127-.064-.063 0-.063 0-.126-.063-.063 0-.19-.063-.252-.063-.063 0-.19-.063-.253-.063s-.189-.063-.252-.063a2.91 2.91 0 01-.441-.19c-.064 0-.127-.062-.253-.062-.063 0-.126-.063-.252-.063-.126-.063-.316-.126-.442-.19-.063 0-.126-.063-.19-.063-.062 0-.125-.063-.188-.063l-.758-.378c-.504-.252-.883-.505-1.261-.694-.379-.252-.694-.441-.884-.568a4.294 4.294 0 00-.567-.378c-.063-.063-.127-.063-.127-.126l-.063-.063s.064.063.19.126.315.19.567.378c.253.127.568.316.947.505.378.19.82.378 1.262.63.252.127.504.19.757.316.063 0 .126.063.189.063s.126.063.19.063a.906.906 0 00.44.126c.064 0 .127.063.253.063.063 0 .126.064.253.064.126.063.315.126.441.126.063 0 .19.063.253.063s.189.063.252.063.19.063.252.063c.063 0 .063 0 .127.063h.126c.063 0 .189.063.252.063h.252c.063 0 .19.063.253.063s.189.063.252.063h.253c.063 0 .189 0 .252.063.063 0 .19 0 .252.063h.253c.757.063 1.514.127 2.334.127.82 0 1.577-.064 2.334-.127.757-.063 1.451-.252 2.145-.378h.253c.063 0 .189-.063.252-.063s.19-.063.252-.063c.063 0 .19-.063.253-.063s.126-.063.252-.063c.063 0 .063 0 .126-.063.063 0 .063 0 .126-.064.064 0 .127-.063.253-.063.063 0 .063 0 .126-.063.063 0 .063 0 .126-.063.568-.189 1.136-.441 1.577-.63.947-.442 1.704-.82 2.209-1.136a2.2 2.2 0 00.567-.378c.127-.063.19-.126.19-.126.063 0 .063 0 0 0 .063 0 .063 0 0 0zm1.135-1.577v-1.388l13.06 6.56-13.06-5.172zm12.997 6.433c-.253.063-.505.19-.82.316-.316.126-.694.252-1.073.378-.252.19-.568.379-.883.568-.316.189-.694.441-1.073.63-.757.442-1.514.947-2.397 1.451-3.722 2.27-6.75 4.037-6.75 4.037s2.965-1.955 6.624-4.226c.82-.505 1.64-1.01 2.397-1.45a9.494 9.494 0 011.073-.631l.946-.568c.378-.126.757-.252 1.072-.378.316 0 .631-.064.884-.127.441-.189.694-.252.694-.252s-.253.126-.694.252z" fill="#0A0951"/><path d="M57.82 6.083l-14.258 4.983a4.16 4.16 0 011.388 1.387c2.145.505 3.911 1.262 4.857 2.145 3.029-1.766 5.994-3.595 9.022-5.361.505.252 1.136.378 1.83.378 1.451 0 2.65-.63 2.65-1.45 0-.19-.063-.38-.19-.568l8.58 3.027 1.578-.694c-2.965-1.387-5.994-2.712-8.959-4.1-.315-.062-.694-.126-1.01-.189-.315-.441-.883-.756-1.577-.946-.063-.63-.504-1.072-1.009-1.072-.442 0-.82.315-.946.757v.505l.063.063c.063.063.063.126.126.126h.189c.126.063.19.126.316.126.063 0 .189.063.252.063h.063-.315c-.127 0-.19 0-.316-.063s-.252-.126-.378-.252c0-.063-.063-.063-.063-.127v-.378c-2.398-1.072-4.795-2.081-7.13-3.154-.378.063-.694.063-1.072.126a759.391 759.391 0 007.508 3.533c-.694.378-1.073.756-1.2 1.135zM45.454 12.2l-1.01-1.01c4.48-1.576 8.896-3.09 13.376-4.667A2432.036 2432.036 0 0045.454 12.2zm16.34-6.181c.127.126.253.315.38.504.125.19.315.379.504.631h.126c.063 0 .126.063.19.063.125.063.252.063.378.126.252.063.568.19.883.316.63.189 1.262.441 1.956.694 2.965 1.072 5.362 2.081 5.362 2.081s-2.46-.757-5.425-1.83c-.694-.251-1.325-.504-1.956-.693-.315-.126-.568-.252-.82-.315-.253-.126-.505-.19-.757-.316 0 0 0-.063-.063-.063l-.063-.063-.064-.063c-.063-.063-.063-.126-.126-.19-.063-.125-.189-.188-.252-.314-.063-.19-.19-.379-.252-.568-.253-.252-.316-.379-.316-.379s.126.127.316.379zm-1.198-2.082c-.063 0-.126.063-.19.127l-.189.189-.189.189c-.063.063-.063.126-.126.19-.063.062-.063.125-.063.125V4.57c0-.063 0-.19.063-.252.063-.063.126-.19.19-.252.062-.064.188-.127.252-.19.126-.063.189-.063.252-.063h.189c-.063.063-.126.063-.19.126zm-5.3-.63c-1.956-.946-3.533-1.703-3.533-1.703s1.64.693 3.596 1.64c1.956.946 3.533 1.703 3.533 1.703s-1.64-.694-3.596-1.64z" fill="#0A0951"/><path d="M30.877 7.406c-.568-1.072-1.199-2.145-1.767-3.217l-.441.252c.567 1.01 1.072 2.019 1.64 3.028.19-.063.378-.063.568-.063zm11.358-.062c.315-2.334.63-4.605.946-6.938l-.505-.063-.946 7h.505zm-5.997-.063c-.441-2.27-.82-4.478-1.262-6.749l-.504.064c.441 2.27.82 4.478 1.261 6.748.19 0 .379-.063.505-.063zm10.164.125c.568-1.072 1.199-2.144 1.767-3.217l.441.253c-.568 1.009-1.072 2.018-1.64 3.027-.19-.063-.379-.063-.568-.063z" fill="#1664F9"/></svg>