<svg width="22" height="14" fill="none" xmlns="http://www.w3.org/2000/svg"><path d="M13.362 5.925H7.056v2.287h3.777c-.139.97-1.144 2.876-3.777 2.876-2.252 0-4.124-1.872-4.124-4.228 0-2.321 1.872-4.193 4.124-4.193 1.317 0 2.183.555 2.668 1.04l1.802-1.733C10.348.866 8.858.207 7.056.207A6.655 6.655 0 00.403 6.86a6.633 6.633 0 006.653 6.653c3.846 0 6.41-2.668 6.41-6.48 0-.45-.07-.762-.104-1.108zm6.41.208V4.227h-1.94v1.906h-1.94v1.94h1.94v1.94h1.94v-1.94h1.941v-1.94h-1.94z" fill="url(#paint0_linear_0_299)"/><defs><linearGradient id="paint0_linear_0_299" x1="2.435" y1="1.686" x2="8.529" y2="17.476" gradientUnits="userSpaceOnUse"><stop stop-color="#6F58E3"/><stop offset="1" stop-color="#BB6BD9"/></linearGradient></defs></svg>