<svg width="56" height="56" fill="none" xmlns="http://www.w3.org/2000/svg"><rect width="56" height="56" rx="6" fill="#EB5757"/><path d="M27.588 25.844h-6.646c-.953 0-1.727.774-1.727 1.726v4.586c0 .952.774 1.727 1.727 1.727h6.646c.953 0 1.727-.775 1.727-1.727v-4.585c0-.953-.774-1.727-1.727-1.727zm.697 6.312a.697.697 0 01-.697.696h-6.646a.697.697 0 01-.697-.696v-4.585c0-.384.313-.697.697-.697h6.646c.384 0 .697.313.697.697v4.585z" fill="#fff"/><path d="M25.208 29.415l-1.369-.79a.515.515 0 00-.773.446v1.58a.515.515 0 00.773.447l1.369-.79a.515.515 0 000-.893z" fill="#fff"/><path d="M41.185 19.562l-6.435-3.35a.516.516 0 00-.476 0l-6.435 3.35a.515.515 0 000 .914l2.478 1.29v1.088H19.974a3.457 3.457 0 00-3.453 3.452v9.534h-.928a.515.515 0 00-.515.515 3.405 3.405 0 003.401 3.401h16.8a3.405 3.405 0 003.4-3.401.515.515 0 00-.514-.515h-.928v-9.534a3.47 3.47 0 00-.008-.216l1.165-.495a.515.515 0 00.313-.474v-3.355l1.725-.898v3.154a.515.515 0 001.03 0V20.02a.515.515 0 00-.277-.457zM36.206 35.84h-7.008a.515.515 0 000 1.03h8.395a2.375 2.375 0 01-2.314 1.855h-16.8a2.375 2.375 0 01-2.314-1.855h8.395a.515.515 0 000-1.03h-7.008v-9.534a2.425 2.425 0 012.422-2.422h10.343v1.237c0 .207.123.393.314.474l3.68 1.563a.516.516 0 00.403 0l1.492-.634v9.316zm1.47-11.06l-3.164 1.344-3.165-1.344v-2.478l2.927 1.524a.515.515 0 00.476 0l2.927-1.524v2.478zm-3.164-1.992l-5.32-2.769 5.32-2.768 5.32 2.768-5.32 2.769z" fill="#fff"/><path d="M34.147 19.655a.52.52 0 000 .729.519.519 0 00.88-.364.519.519 0 00-.515-.516.52.52 0 00-.365.151zm.088 13.195h-2.817a.515.515 0 000 1.03h2.817a.515.515 0 000-1.03zm0-2.473h-2.817a.515.515 0 000 1.03h2.817a.515.515 0 000-1.03zm-7.356 5.463a.519.519 0 00-.516.515.518.518 0 00.516.516.519.519 0 00.515-.516.52.52 0 00-.515-.515z" fill="#fff"/></svg>